<svg width="24" height="25" viewBox="0 0 24 25" fill="none" xmlns="http://www.w3.org/2000/svg">
<path d="M8.42773 16.4463C9.7195 16.4463 10.7673 17.4935 10.7676 18.7852C10.7676 20.0771 9.71969 21.125 8.42773 21.125C7.13616 21.1246 6.08887 20.0768 6.08887 18.7852C6.08917 17.4937 7.13635 16.4467 8.42773 16.4463ZM16.4277 16.4463C17.7195 16.4463 18.7673 17.4935 18.7676 18.7852C18.7676 20.0771 17.7197 21.125 16.4277 21.125C15.1362 21.1246 14.0889 20.0768 14.0889 18.7852C14.0892 17.4937 15.1363 16.4467 16.4277 16.4463ZM8.42773 17.6963C7.82671 17.6967 7.33917 18.1841 7.33887 18.7852C7.33887 19.3865 7.82652 19.8746 8.42773 19.875C9.02933 19.875 9.51758 19.3868 9.51758 18.7852C9.51728 18.1838 9.02914 17.6963 8.42773 17.6963ZM16.4277 17.6963C15.8267 17.6967 15.3392 18.1841 15.3389 18.7852C15.3389 19.3865 15.8265 19.8746 16.4277 19.875C17.0293 19.875 17.5176 19.3868 17.5176 18.7852C17.5173 18.1838 17.0291 17.6963 16.4277 17.6963ZM4.3125 4.33105L7.125 14.3232H17.5527L19.6621 7.42383H6.65137V6.17383H21.3516L21.1045 6.98242L18.6123 15.1309L18.4766 15.5732H6.17773L6.0498 15.1172L3.2373 5.125H1V3.875H4.18359L4.3125 4.33105Z" fill="white"/>
</svg>
