<svg width="80" height="14" viewBox="0 0 80 14" fill="none" xmlns="http://www.w3.org/2000/svg">
<path d="M78.5031 13.8099C78.1364 13.8099 77.8431 13.6799 77.6231 13.4199C77.4098 13.1599 77.3231 12.8365 77.3631 12.4499C77.4098 12.0765 77.5631 11.7599 77.8231 11.4999C78.0831 11.2399 78.3964 11.1099 78.7631 11.1099C79.1231 11.1099 79.4131 11.2365 79.6331 11.4899C79.8598 11.7365 79.9564 12.0565 79.9231 12.4499C79.8898 12.8432 79.7364 13.1699 79.4631 13.4299C79.1898 13.6832 78.8698 13.8099 78.5031 13.8099Z" fill="#161412"/>
<path d="M74.3495 13.8799C73.8628 13.8799 73.4295 13.7799 73.0495 13.5799C72.6695 13.3732 72.3861 13.0599 72.1995 12.6399C72.0128 12.2199 71.9461 11.6865 71.9995 11.0399L72.5595 4.92988L72.9695 5.27988H71.2095L71.3595 3.98988H73.0995L72.5995 4.43988L72.8995 1.37988H74.6595L74.3595 4.43988L73.9595 3.98988H76.9595L76.8195 5.27988H73.8195L74.3095 4.92988L73.7395 10.9999C73.6995 11.4465 73.7661 11.7799 73.9395 11.9999C74.1195 12.2199 74.3995 12.3299 74.7795 12.3299C74.9795 12.3299 75.1928 12.3032 75.4195 12.2499C75.6528 12.1899 75.9128 12.1032 76.1995 11.9899L76.3195 13.3699C75.9861 13.5232 75.6595 13.6466 75.3395 13.7399C75.0261 13.8332 74.6961 13.8799 74.3495 13.8799Z" fill="#FFD700"/>
<path d="M64.4215 13.6298L65.3315 3.96982H67.0915L66.9115 5.83981C67.2248 5.14648 67.5948 4.63648 68.0215 4.30981C68.4548 3.97648 68.9315 3.80981 69.4515 3.80981C69.5848 3.80981 69.7248 3.82315 69.8715 3.84981C70.0182 3.86981 70.1615 3.90982 70.3015 3.96982L70.0715 5.90981C69.8982 5.86315 69.7215 5.82648 69.5415 5.79981C69.3615 5.76648 69.1848 5.74981 69.0115 5.74981C68.5315 5.74981 68.1215 5.89315 67.7815 6.17981C67.4415 6.46648 67.1715 6.87648 66.9715 7.40981C66.7782 7.94315 66.6482 8.58648 66.5815 9.33981L66.1815 13.6298H64.4215Z" fill="#FFD700"/>
<path d="M56.7286 13.88C56.0286 13.88 55.4486 13.7367 54.9886 13.45C54.5352 13.1633 54.2052 12.7933 53.9986 12.34C53.7986 11.88 53.7252 11.39 53.7786 10.87C53.8386 10.2367 54.0319 9.71332 54.3586 9.29999C54.6919 8.87999 55.1286 8.56666 55.6686 8.35999C56.2152 8.14666 56.8286 8.03999 57.5086 8.03999C57.9286 8.03999 58.3419 8.08332 58.7486 8.16999C59.1552 8.24999 59.5419 8.35999 59.9086 8.49999L60.0186 7.39999C60.1052 6.62666 60.0152 6.06332 59.7486 5.70999C59.4886 5.35666 59.0486 5.17999 58.4286 5.17999C58.0686 5.17999 57.7452 5.23999 57.4586 5.35999C57.1719 5.47332 56.9386 5.64666 56.7586 5.87999C56.5786 6.11332 56.4719 6.40332 56.4386 6.74999H54.4986C54.5719 6.01666 54.7952 5.42999 55.1686 4.98999C55.5419 4.54999 56.0152 4.23332 56.5886 4.03999C57.1619 3.83999 57.7752 3.73999 58.4286 3.73999C59.6086 3.73999 60.4886 4.03999 61.0686 4.63999C61.6552 5.23999 61.8886 6.17999 61.7686 7.45999L61.1886 13.63H59.6686C59.6619 13.3833 59.6586 13.14 59.6586 12.9C59.6652 12.6533 59.6652 12.4067 59.6586 12.16C59.3252 12.7333 58.9152 13.1633 58.4286 13.45C57.9419 13.7367 57.3752 13.88 56.7286 13.88ZM57.1586 12.38C57.6119 12.38 58.0319 12.27 58.4186 12.05C58.8119 11.83 59.1319 11.5233 59.3786 11.13C59.6252 10.73 59.7619 10.2667 59.7886 9.73999C59.4619 9.63332 59.1119 9.54666 58.7386 9.47999C58.3652 9.41332 58.0152 9.37999 57.6886 9.37999C57.1486 9.37999 56.6852 9.49332 56.2986 9.71999C55.9119 9.93999 55.6919 10.3233 55.6386 10.87C55.6052 11.2967 55.7186 11.6567 55.9786 11.95C56.2452 12.2367 56.6386 12.38 57.1586 12.38Z" fill="#FFD700"/>
<path d="M47.894 13.88C47.174 13.88 46.524 13.6733 45.944 13.26C45.364 12.8467 44.924 12.26 44.624 11.5C44.324 10.74 44.2207 9.83999 44.314 8.79999C44.414 7.71999 44.684 6.80666 45.124 6.05999C45.5707 5.30666 46.1207 4.73332 46.774 4.33999C47.4274 3.93999 48.1174 3.73999 48.844 3.73999C49.3574 3.73999 49.8074 3.83332 50.194 4.01999C50.5874 4.19999 50.9174 4.44666 51.184 4.75999C51.4574 5.06666 51.664 5.41666 51.804 5.80999C51.9507 6.20332 52.0374 6.60666 52.064 7.01999L50.284 7.12999C50.1974 6.64332 50.0174 6.24999 49.744 5.94999C49.4707 5.64332 49.1074 5.48999 48.654 5.48999C48.2607 5.48999 47.8807 5.61332 47.514 5.85999C47.154 6.09999 46.8474 6.46666 46.594 6.95999C46.3407 7.44666 46.1774 8.05999 46.104 8.79999C46.044 9.49999 46.084 10.1 46.224 10.6C46.3707 11.0933 46.6007 11.47 46.914 11.73C47.234 11.99 47.614 12.12 48.054 12.12C48.6207 12.12 49.0707 11.96 49.404 11.64C49.7374 11.3133 49.9307 10.8633 49.984 10.29H51.764C51.7107 10.9633 51.514 11.5733 51.174 12.12C50.8407 12.66 50.3907 13.09 49.824 13.41C49.264 13.7233 48.6207 13.88 47.894 13.88Z" fill="#FFD700"/>
<path d="M31.0254 11.3399L30.9754 11.8299H37.5954L37.4354 13.6299H29.0554L29.2354 11.5999C29.3088 10.8732 29.4688 10.2599 29.7154 9.75987C29.9621 9.25987 30.2954 8.84321 30.7154 8.50987C31.1421 8.17654 31.6488 7.88987 32.2354 7.64987L34.6454 6.63987C35.2121 6.39321 35.6488 6.08321 35.9554 5.70987C36.2688 5.33654 36.4454 4.87321 36.4854 4.31987C36.5521 3.74654 36.4188 3.27321 36.0854 2.89987C35.7521 2.52654 35.2521 2.33987 34.5854 2.33987C33.9454 2.33987 33.3988 2.50654 32.9454 2.83987C32.4988 3.16654 32.2088 3.64987 32.0754 4.28987H30.1254C30.2321 3.48321 30.4954 2.80987 30.9154 2.26987C31.3354 1.72321 31.8721 1.31321 32.5254 1.03987C33.1854 0.759874 33.9188 0.619873 34.7254 0.619873C35.4854 0.619873 36.1521 0.783207 36.7254 1.10987C37.3054 1.42987 37.7454 1.87321 38.0454 2.43987C38.3454 3.00654 38.4588 3.66321 38.3854 4.40987C38.2921 5.40321 37.9721 6.21321 37.4254 6.83987C36.8788 7.45987 36.1321 7.96987 35.1854 8.36987L32.7354 9.39987C32.1888 9.62654 31.7788 9.88987 31.5054 10.1899C31.2321 10.4832 31.0721 10.8665 31.0254 11.3399Z" fill="white"/>
<path d="M21.0878 13.8799C20.6011 13.8799 20.1678 13.7799 19.7878 13.5799C19.4078 13.3732 19.1244 13.0599 18.9378 12.6399C18.7511 12.2199 18.6844 11.6865 18.7378 11.0399L19.2978 4.92988L19.7078 5.27988H17.9478L18.0978 3.98988H19.8378L19.3378 4.43988L19.6378 1.37988H21.3978L21.0978 4.43988L20.6978 3.98988H23.6978L23.5578 5.27988H20.5578L21.0478 4.92988L20.4778 10.9999C20.4378 11.4465 20.5044 11.7799 20.6778 11.9999C20.8578 12.2199 21.1378 12.3299 21.5178 12.3299C21.7178 12.3299 21.9311 12.3032 22.1578 12.2499C22.3911 12.1899 22.6511 12.1032 22.9378 11.9899L23.0578 13.3699C22.7244 13.5232 22.3978 13.6466 22.0778 13.7399C21.7644 13.8332 21.4344 13.8799 21.0878 13.8799Z" fill="white"/>
<path d="M11.1598 13.6298L12.0698 3.96982H13.8298L13.6498 5.83981C13.9631 5.14648 14.3331 4.63648 14.7598 4.30981C15.1931 3.97648 15.6698 3.80981 16.1898 3.80981C16.3231 3.80981 16.4631 3.82315 16.6098 3.84981C16.7565 3.86981 16.8998 3.90982 17.0398 3.96982L16.8098 5.90981C16.6365 5.86315 16.4598 5.82648 16.2798 5.79981C16.0998 5.76648 15.9231 5.74981 15.7498 5.74981C15.2698 5.74981 14.8598 5.89315 14.5198 6.17981C14.1798 6.46648 13.9098 6.87648 13.7098 7.40981C13.5165 7.94315 13.3865 8.58648 13.3198 9.33981L12.9198 13.6298H11.1598Z" fill="white"/>
<path d="M3.46684 13.88C2.76684 13.88 2.18684 13.7367 1.72684 13.45C1.27351 13.1633 0.943509 12.7933 0.736842 12.34C0.536842 11.88 0.463509 11.39 0.516842 10.87C0.576842 10.2367 0.770175 9.71332 1.09684 9.29999C1.43018 8.87999 1.86684 8.56666 2.40684 8.35999C2.95351 8.14666 3.56684 8.03999 4.24684 8.03999C4.66684 8.03999 5.08018 8.08332 5.48684 8.16999C5.89351 8.24999 6.28018 8.35999 6.64684 8.49999L6.75684 7.39999C6.84351 6.62666 6.75351 6.06332 6.48684 5.70999C6.22684 5.35666 5.78684 5.17999 5.16684 5.17999C4.80684 5.17999 4.48351 5.23999 4.19684 5.35999C3.91018 5.47332 3.67684 5.64666 3.49684 5.87999C3.31684 6.11332 3.21018 6.40332 3.17684 6.74999H1.23684C1.31018 6.01666 1.53351 5.42999 1.90684 4.98999C2.28018 4.54999 2.75351 4.23332 3.32684 4.03999C3.90018 3.83999 4.51351 3.73999 5.16684 3.73999C6.34684 3.73999 7.22684 4.03999 7.80684 4.63999C8.39351 5.23999 8.62684 6.17999 8.50684 7.45999L7.92684 13.63H6.40684C6.40018 13.3833 6.39684 13.14 6.39684 12.9C6.40351 12.6533 6.40351 12.4067 6.39684 12.16C6.06351 12.7333 5.65351 13.1633 5.16684 13.45C4.68018 13.7367 4.11351 13.88 3.46684 13.88ZM3.89684 12.38C4.35018 12.38 4.77018 12.27 5.15684 12.05C5.55018 11.83 5.87018 11.5233 6.11684 11.13C6.36351 10.73 6.50018 10.2667 6.52684 9.73999C6.20018 9.63332 5.85018 9.54666 5.47684 9.47999C5.10351 9.41332 4.75351 9.37999 4.42684 9.37999C3.88684 9.37999 3.42351 9.49332 3.03684 9.71999C2.65018 9.93999 2.43018 10.3233 2.37684 10.87C2.34351 11.2967 2.45684 11.6567 2.71684 11.95C2.98351 12.2367 3.37684 12.38 3.89684 12.38Z" fill="white"/>
</svg>
